<mxfile host="www.draw.io" modified="2020-02-16T19:46:40.394Z" agent="Mozilla/5.0 (Windows NT 10.0; Win64; x64) AppleWebKit/537.36 (KHTML, like Gecko) Chrome/79.0.3945.130 Safari/537.36" etag="kJr_pc6sAzUVf1yJ4QX8" version="12.7.0" type="github">
  <diagram id="N_tDqwgi_OVyeko8ARC_" name="Page-1">
    <mxGraphModel dx="1221" dy="645" grid="1" gridSize="10" guides="1" tooltips="1" connect="1" arrows="1" fold="1" page="1" pageScale="1" pageWidth="850" pageHeight="1100" math="0" shadow="0">
      <root>
        <mxCell id="0"/>
        <mxCell id="1" parent="0"/>
        <mxCell id="gQK92-9TezZmaMxm4mEU-1" value="" style="strokeWidth=1;shadow=0;dashed=0;align=center;html=1;shape=mxgraph.mockup.containers.browserWindow;rSize=0;strokeColor=#666666;strokeColor2=#008cff;strokeColor3=#c4c4c4;mainText=,;recursiveResize=0;" vertex="1" parent="1">
          <mxGeometry x="60" y="20" width="960" height="620" as="geometry"/>
        </mxCell>
        <mxCell id="gQK92-9TezZmaMxm4mEU-2" value="Page 1" style="strokeWidth=1;shadow=0;dashed=0;align=center;html=1;shape=mxgraph.mockup.containers.anchor;fontSize=17;fontColor=#666666;align=left;" vertex="1" parent="gQK92-9TezZmaMxm4mEU-1">
          <mxGeometry x="60" y="12" width="110" height="26" as="geometry"/>
        </mxCell>
        <mxCell id="gQK92-9TezZmaMxm4mEU-3" value="https://www.esrtsi.com" style="strokeWidth=1;shadow=0;dashed=0;align=center;html=1;shape=mxgraph.mockup.containers.anchor;rSize=0;fontSize=17;fontColor=#666666;align=left;" vertex="1" parent="gQK92-9TezZmaMxm4mEU-1">
          <mxGeometry x="130" y="60" width="250" height="26" as="geometry"/>
        </mxCell>
        <mxCell id="gQK92-9TezZmaMxm4mEU-4" value="" style="rounded=0;whiteSpace=wrap;html=1;" vertex="1" parent="gQK92-9TezZmaMxm4mEU-1">
          <mxGeometry x="390" y="210" width="180" height="310" as="geometry"/>
        </mxCell>
        <mxCell id="gQK92-9TezZmaMxm4mEU-5" value="Counter Clockwise" style="strokeWidth=1;shadow=0;dashed=0;align=center;html=1;shape=mxgraph.mockup.buttons.button;strokeColor=#666666;fontColor=#ffffff;mainText=;buttonStyle=round;fontSize=17;fontStyle=1;fillColor=#008cff;whiteSpace=wrap;" vertex="1" parent="gQK92-9TezZmaMxm4mEU-1">
          <mxGeometry x="210" y="470" width="140" height="50" as="geometry"/>
        </mxCell>
        <mxCell id="gQK92-9TezZmaMxm4mEU-6" value="" style="rounded=0;whiteSpace=wrap;html=1;" vertex="1" parent="gQK92-9TezZmaMxm4mEU-1">
          <mxGeometry y="110" width="960" height="60" as="geometry"/>
        </mxCell>
        <mxCell id="gQK92-9TezZmaMxm4mEU-7" value="&amp;lt; ---" style="strokeWidth=1;shadow=0;dashed=0;align=center;html=1;shape=mxgraph.mockup.buttons.button;strokeColor=#666666;fontColor=#ffffff;mainText=;buttonStyle=round;fontSize=17;fontStyle=1;fillColor=#008cff;whiteSpace=wrap;" vertex="1" parent="gQK92-9TezZmaMxm4mEU-1">
          <mxGeometry x="205" y="540" width="150" height="50" as="geometry"/>
        </mxCell>
        <mxCell id="gQK92-9TezZmaMxm4mEU-8" value="Clockwise" style="strokeWidth=1;shadow=0;dashed=0;align=center;html=1;shape=mxgraph.mockup.buttons.button;strokeColor=#666666;fontColor=#ffffff;mainText=;buttonStyle=round;fontSize=17;fontStyle=1;fillColor=#008cff;whiteSpace=wrap;" vertex="1" parent="gQK92-9TezZmaMxm4mEU-1">
          <mxGeometry x="610" y="470" width="150" height="50" as="geometry"/>
        </mxCell>
        <mxCell id="gQK92-9TezZmaMxm4mEU-9" value="--- &amp;gt;" style="strokeWidth=1;shadow=0;dashed=0;align=center;html=1;shape=mxgraph.mockup.buttons.button;strokeColor=#666666;fontColor=#ffffff;mainText=;buttonStyle=round;fontSize=17;fontStyle=1;fillColor=#008cff;whiteSpace=wrap;" vertex="1" parent="gQK92-9TezZmaMxm4mEU-1">
          <mxGeometry x="610" y="540" width="150" height="50" as="geometry"/>
        </mxCell>
      </root>
    </mxGraphModel>
  </diagram>
</mxfile>
